# xmcd CD database file
# Copyright 1993-1996 (C) Ti Kan
#
# Track frame offsets:
#    182
#    16782
#    29995
#    44692
#    61220
#    76870
#    95250
#    107845
#    123862
#    139850
#    153542
#    171907
#    185245
#    204582
#    218090
#    232340
#    249762
#    261695
#
# Disc length: 3677 seconds
#
# Revision: 0
# Processed by: cddbd v1.4b41PL1 Copyright (c) Steve Scherf et al.
# Submitted via: MyCDplayer 2.1.4  (wjohn@fix.net)
#
DISCID=0a0e5b12
DTITLE=Miscellaneous Artists - This Is Your Country
DYEAR=1900
DGENRE=
TTITLE0=If Tomorrow Never Comes - GARTH BROOKS
TTITLE1=Fourteen Minutes Old - DOUG STONE
TTITLE2=Don't Go Out - TANYA TUCKER
TTITLE3=Next To You, Next To Me - SHENANDOAH
TTITLE4=He Talks To Me - LORRIE MORGAN
TTITLE5=I'll Lie Myself To Sleep - SHELBY LYNNE
TTITLE6=My Past Is Present - RODNEY CROWELL
TTITLE7=She Came From Fort Worth - KATHY MATTEA
TTITLE8=It's Lonely Out Tonite - EDDIE RABBITT
TTITLE9=I Meant Every Word He Said -RICKY VAN SHELTON
TTITLE10=This Side Of Goodbye - HIGHWAY 101
TTITLE11=Something Of A Dreamer -MARY-CHAPIN CARPENTER
TTITLE12=Dancy's Dream -  RESTLESS HEART
TTITLE13=Wrong - WAYLON JENNINGS
TTITLE14=On Down The Line - PATTY LOVELESS
TTITLE15=Love On Arrival - DAN SEALS
TTITLE16=Hillbilly Rock - MARTY STUART
TTITLE17=Oh Lonesome Me - THE KENTUCKY HEADHUNTERS
EXTD=
EXTT0=
EXTT1=
EXTT2=
EXTT3=
EXTT4=
EXTT5=
EXTT6=
EXTT7=
EXTT8=
EXTT9=
EXTT10=
EXTT11=
EXTT12=
EXTT13=
EXTT14=
EXTT15=
EXTT16=
EXTT17=
PLAYORDER=
